<?xml version="1.0" encoding="UTF-8" standalone="no"?>
<!-- Created with Inkscape (http://www.inkscape.org/) -->

<svg
   xmlns:dc="http://purl.org/dc/elements/1.1/"
   xmlns:cc="http://creativecommons.org/ns#"
   xmlns:rdf="http://www.w3.org/1999/02/22-rdf-syntax-ns#"
   xmlns:svg="http://www.w3.org/2000/svg"
   xmlns="http://www.w3.org/2000/svg"
   xmlns:sodipodi="http://sodipodi.sourceforge.net/DTD/sodipodi-0.dtd"
   xmlns:inkscape="http://www.inkscape.org/namespaces/inkscape"
   width="210mm"
   height="297mm"
   viewBox="0 0 744.09448819 1052.3622047"
   id="svg2"
   version="1.1"
   inkscape:version="0.91pre3 r13670"
   sodipodi:docname="ilustrationfenetre.svg">
  <defs
     id="defs4" />
  <sodipodi:namedview
     id="base"
     pagecolor="#ffffff"
     bordercolor="#666666"
     borderopacity="1.0"
     inkscape:pageopacity="0.0"
     inkscape:pageshadow="2"
     inkscape:zoom="1.9136366"
     inkscape:cx="350.45388"
     inkscape:cy="810.28424"
     inkscape:document-units="px"
     inkscape:current-layer="layer1"
     showgrid="false"
     inkscape:window-width="1920"
     inkscape:window-height="1053"
     inkscape:window-x="-9"
     inkscape:window-y="-9"
     inkscape:window-maximized="1"
     showguides="false" />
  <metadata
     id="metadata7">
    <rdf:RDF>
      <cc:Work
         rdf:about="">
        <dc:format>image/svg+xml</dc:format>
        <dc:type
           rdf:resource="http://purl.org/dc/dcmitype/StillImage" />
        <dc:title></dc:title>
      </cc:Work>
    </rdf:RDF>
  </metadata>
  <g
     inkscape:label="Calque 1"
     inkscape:groupmode="layer"
     id="layer1">
    <path
       style="fill:none;fill-rule:evenodd;stroke:#000000;stroke-width:1px;stroke-linecap:butt;stroke-linejoin:miter;stroke-opacity:1"
       d="m 38.571429,480.49536 c 0.33131,-31.86441 14.608543,-384.937942 -1.42857,-385.714292 -9.37019,4.6851 21.05767,1.48156 31.42857,0 21.916038,-3.13086 47.870341,-3.72355 70.000001,-2.14286 80.00504,5.71465 162.95887,9.285722 242.85714,9.285722 16.6728,0 201.6013,-6.970132 204.28572,-4.285722 0.20553,0.20553 -7.14286,125.731352 -7.14286,158.571432 0,21.97024 7.25795,222.74205 6.42857,223.57143 -103.31511,-2.54607 -214.87069,-12.72958 -308.57143,-1.78571 -60.53222,7.56653 -178.732221,17.28123 -237.857141,2.5 z"
       id="path4166"
       inkscape:connector-curvature="0"
       sodipodi:nodetypes="ccsssssccc" />
    <path
       style="fill:none;fill-rule:evenodd;stroke:#000000;stroke-width:1px;stroke-linecap:butt;stroke-linejoin:miter;stroke-opacity:1"
       d="M 43.571429,142.3622 C 267.10928,152.6534 422.2268,127.36654 582.85714,155.21935"
       id="path4168"
       inkscape:connector-curvature="0"
       sodipodi:nodetypes="cc" />
    <rect
       style="color:#000000;clip-rule:nonzero;display:inline;overflow:visible;visibility:visible;opacity:1;isolation:auto;mix-blend-mode:normal;color-interpolation:sRGB;color-interpolation-filters:linearRGB;solid-color:#000000;solid-opacity:1;fill:none;fill-opacity:1;fill-rule:nonzero;stroke:#29ae27;stroke-width:1.77165353;stroke-linecap:butt;stroke-linejoin:miter;stroke-miterlimit:4;stroke-dasharray:none;stroke-dashoffset:0;stroke-opacity:1;color-rendering:auto;image-rendering:auto;shape-rendering:auto;text-rendering:auto;enable-background:accumulate"
       id="rect4170"
       width="244.28572"
       height="51.42857"
       x="196.42857"
       y="195.93364" />
    <rect
       style="color:#000000;clip-rule:nonzero;display:inline;overflow:visible;visibility:visible;opacity:1;isolation:auto;mix-blend-mode:normal;color-interpolation:sRGB;color-interpolation-filters:linearRGB;solid-color:#000000;solid-opacity:1;fill:none;fill-opacity:1;fill-rule:nonzero;stroke:#29ae27;stroke-width:1.77165353;stroke-linecap:butt;stroke-linejoin:miter;stroke-miterlimit:4;stroke-dasharray:none;stroke-dashoffset:0;stroke-opacity:1;color-rendering:auto;image-rendering:auto;shape-rendering:auto;text-rendering:auto;enable-background:accumulate"
       id="rect4172"
       width="202.85715"
       height="42.857143"
       x="105"
       y="346.64792" />
    <rect
       style="color:#000000;clip-rule:nonzero;display:inline;overflow:visible;visibility:visible;opacity:1;isolation:auto;mix-blend-mode:normal;color-interpolation:sRGB;color-interpolation-filters:linearRGB;solid-color:#000000;solid-opacity:1;fill:none;fill-opacity:1;fill-rule:nonzero;stroke:#29ae27;stroke-width:1.77165353;stroke-linecap:butt;stroke-linejoin:miter;stroke-miterlimit:4;stroke-dasharray:none;stroke-dashoffset:0;stroke-opacity:1;color-rendering:auto;image-rendering:auto;shape-rendering:auto;text-rendering:auto;enable-background:accumulate"
       id="rect4174"
       width="189.28572"
       height="47.142857"
       x="331.42856"
       y="345.21936" />
    <text
       xml:space="preserve"
       style="font-style:normal;font-weight:normal;font-size:10px;line-height:125%;font-family:sans-serif;letter-spacing:0px;word-spacing:0px;writing-mode:lr-tb;fill:#000000;fill-opacity:1;stroke:none;stroke-width:1px;stroke-linecap:butt;stroke-linejoin:miter;stroke-opacity:1"
       x="356.42856"
       y="361.64792"
       id="text4176"
       sodipodi:linespacing="125%"><tspan
         sodipodi:role="line"
         id="tspan4178"
         x="356.42856"
         y="361.64792">C'est plus grand</tspan><tspan
         sodipodi:role="line"
         x="356.42856"
         y="374.14792"
         id="tspan4180" /></text>
    <text
       xml:space="preserve"
       style="font-style:normal;font-weight:normal;font-size:10px;line-height:125%;font-family:sans-serif;letter-spacing:0px;word-spacing:0px;writing-mode:lr-tb;fill:#000000;fill-opacity:1;stroke:none;stroke-width:1px;stroke-linecap:butt;stroke-linejoin:miter;stroke-opacity:1"
       x="396.42856"
       y="393.07648"
       id="text4182"
       sodipodi:linespacing="125%"><tspan
         sodipodi:role="line"
         id="tspan4184"
         x="396.42856"
         y="393.07648">   </tspan></text>
    <text
       xml:space="preserve"
       style="font-style:normal;font-weight:normal;font-size:10px;line-height:125%;font-family:sans-serif;letter-spacing:0px;word-spacing:0px;writing-mode:lr-tb;fill:#000000;fill-opacity:1;stroke:none;stroke-width:1px;stroke-linecap:butt;stroke-linejoin:miter;stroke-opacity:1"
       x="177.33711"
       y="368.69244"
       id="text4176-0"
       sodipodi:linespacing="125%"><tspan
         sodipodi:role="line"
         id="tspan4178-2"
         x="177.33711"
         y="368.69244">C'est plus petit</tspan><tspan
         sodipodi:role="line"
         x="177.33711"
         y="381.19244"
         id="tspan4180-9" /></text>
    <text
       xml:space="preserve"
       style="font-style:normal;font-weight:normal;font-size:10px;line-height:125%;font-family:sans-serif;letter-spacing:0px;word-spacing:0px;writing-mode:lr-tb;fill:#000000;fill-opacity:1;stroke:none;stroke-width:1px;stroke-linecap:butt;stroke-linejoin:miter;stroke-opacity:1"
       x="309.28571"
       y="188.07648"
       id="text4207"
       sodipodi:linespacing="125%"><tspan
         sodipodi:role="line"
         id="tspan4209"
         x="309.28571"
         y="188.07648">Affichage de la proposition de l'ordinateur</tspan></text>
    <flowRoot
       xml:space="preserve"
       id="flowRoot4211"
       style="font-style:normal;font-weight:normal;font-size:10px;line-height:125%;font-family:sans-serif;letter-spacing:0px;word-spacing:0px;writing-mode:lr-tb;fill:#000000;fill-opacity:1;stroke:none;stroke-width:1px;stroke-linecap:butt;stroke-linejoin:miter;stroke-opacity:1"
       transform="matrix(1.706038,0.00108673,-0.00108673,1.706038,-54.096017,-162.9407)"><flowRegion
         id="flowRegion4213"><rect
           id="rect4215"
           width="132.5"
           height="23.214293"
           x="85"
           y="155.93364" /></flowRegion><flowPara
         id="flowPara4217"
         style="line-height:211.99998856%">Le nombre mystère</flowPara></flowRoot>    <flowRoot
       xml:space="preserve"
       id="flowRoot4223"
       style="font-style:normal;font-weight:normal;font-size:22.5px;line-height:125%;font-family:sans-serif;letter-spacing:0px;word-spacing:0px;writing-mode:lr-tb;fill:#000000;fill-opacity:1;stroke:none;stroke-width:1px;stroke-linecap:butt;stroke-linejoin:miter;stroke-opacity:1"><flowRegion
         id="flowRegion4225"><rect
           id="rect4227"
           width="5.7142859"
           height="34.285713"
           x="371.42856"
           y="429.50507" /></flowRegion><flowPara
         id="flowPara4229">Message de fin gagné ou perdu</flowPara><flowPara
         id="flowPara4231" /></flowRoot>    <text
       xml:space="preserve"
       style="font-style:normal;font-weight:normal;font-size:22.5px;line-height:125%;font-family:sans-serif;letter-spacing:0px;word-spacing:0px;writing-mode:lr-tb;fill:#000000;fill-opacity:1;stroke:none;stroke-width:1px;stroke-linecap:butt;stroke-linejoin:miter;stroke-opacity:1"
       x="209.28571"
       y="427.36221"
       id="text4233"
       sodipodi:linespacing="125%"><tspan
         sodipodi:role="line"
         id="tspan4235"
         x="209.28571"
         y="427.36221">Message de fin:</tspan><tspan
         sodipodi:role="line"
         x="209.28571"
         y="455.48721"
         id="tspan4237">gagné ou perdu</tspan></text>
    <rect
       style="color:#000000;clip-rule:nonzero;display:inline;overflow:visible;visibility:visible;opacity:1;isolation:auto;mix-blend-mode:normal;color-interpolation:sRGB;color-interpolation-filters:linearRGB;solid-color:#000000;solid-opacity:1;fill:none;fill-opacity:1;fill-rule:nonzero;stroke:#29ae27;stroke-width:1.77165353;stroke-linecap:butt;stroke-linejoin:miter;stroke-miterlimit:4;stroke-dasharray:none;stroke-dashoffset:0;stroke-opacity:1;color-rendering:auto;image-rendering:auto;shape-rendering:auto;text-rendering:auto;enable-background:accumulate"
       id="rect4291"
       width="114.2857"
       height="29.285727"
       x="431.42856"
       y="401.64792" />
    <rect
       style="color:#000000;clip-rule:nonzero;display:inline;overflow:visible;visibility:visible;opacity:1;isolation:auto;mix-blend-mode:normal;color-interpolation:sRGB;color-interpolation-filters:linearRGB;solid-color:#000000;solid-opacity:1;fill:none;fill-opacity:1;fill-rule:nonzero;stroke:#29ae27;stroke-width:1.77165353;stroke-linecap:butt;stroke-linejoin:miter;stroke-miterlimit:4;stroke-dasharray:none;stroke-dashoffset:0;stroke-opacity:1;color-rendering:auto;image-rendering:auto;shape-rendering:auto;text-rendering:auto;enable-background:accumulate"
       id="rect4291-4"
       width="114.2857"
       height="29.285727"
       x="430.71429"
       y="435.74237" />
    <path
       style="fill:none;fill-rule:evenodd;stroke:#000000;stroke-width:1px;stroke-linecap:butt;stroke-linejoin:miter;stroke-opacity:1"
       d="m 439.29009,410.15772 c 0.25516,1.69434 0.31254,3.44417 0.50508,5.17703 0.17711,1.59405 0.27132,5.19582 1.13642,6.06092 0.38804,0.38805 -0.12627,2.19028 -0.12627,1.6415 0,-2.22656 -3.87626,-15.52158 0.63134,-14.39468 4.74154,1.18539 -0.21045,5.00867 -0.12627,5.17704 1.00893,2.01784 2.44536,3.83432 4.04061,5.42957"
       id="path4308"
       inkscape:connector-curvature="0" />
    <path
       style="fill:none;fill-rule:evenodd;stroke:#000000;stroke-width:1px;stroke-linecap:butt;stroke-linejoin:miter;stroke-opacity:1"
       d="m 448.25519,417.35506 c 0.60284,0.49333 1.40286,0.93659 2.14658,0.37881 2.44177,-1.83133 -0.92207,-1.3312 -2.14658,-0.37881 -4.14521,3.22406 4.11215,2.51434 5.42957,2.0203"
       id="path4310"
       inkscape:connector-curvature="0" />
    <path
       style="fill:none;fill-rule:evenodd;stroke:#000000;stroke-width:1px;stroke-linecap:butt;stroke-linejoin:miter;stroke-opacity:1"
       d="m 455.70507,415.9661 c 7.248,12.60559 -8.56087,9.90661 5.68211,1.76777"
       id="path4312"
       inkscape:connector-curvature="0" />
    <path
       style="fill:none;fill-rule:evenodd;stroke:#000000;stroke-width:1px;stroke-linecap:butt;stroke-linejoin:miter;stroke-opacity:1"
       d="m 464.41763,414.57714 c -5.39844,0.36178 -1.21403,10.00914 2.65165,5.17703 0.62549,-0.78186 0.94466,-2.27757 0.50508,-3.15672 -0.56354,-1.12709 -2.27608,-1.13643 -3.283,-1.13643"
       id="path4316"
       inkscape:connector-curvature="0" />
    <path
       style="fill:none;fill-rule:evenodd;stroke:#000000;stroke-width:1px;stroke-linecap:butt;stroke-linejoin:miter;stroke-opacity:1"
       d="m 466.94301,415.33475 c 9.47187,-2.26802 1.93243,1.78057 6.81853,3.40927 1.15412,0.38471 3.00557,-2.92908 2.39912,-3.53553 -0.44983,-0.44983 -0.64807,5.77371 3.53553,3.91434"
       id="path4318"
       inkscape:connector-curvature="0" />
    <path
       style="fill:none;fill-rule:evenodd;stroke:#000000;stroke-width:1px;stroke-linecap:butt;stroke-linejoin:miter;stroke-opacity:1"
       d="m 480.20127,417.35506 c 1.8261,-0.17367 4.00395,-0.17922 4.92449,-2.02031 0.85953,-1.71905 -6.52902,0.37114 -4.16688,3.91435 0.5759,0.86384 1.41777,1.04744 2.39911,0.88388 2.34494,-0.39082 4.21718,-1.13591 5.17704,-3.53553 0.29741,-0.74354 -0.84254,-2.75725 -0.12627,-2.39912 2.78169,1.39085 4.07814,8.52658 8.71256,5.05077"
       id="path4320"
       inkscape:connector-curvature="0" />
    <path
       style="fill:none;fill-rule:evenodd;stroke:#000000;stroke-width:1px;stroke-linecap:butt;stroke-linejoin:miter;stroke-opacity:1"
       d="m 451.66446,441.34618 c -2.4565,0.094 -4.54313,-0.13202 -5.55584,2.14658 -0.90703,2.04081 -0.55162,4.89123 0.88388,6.56599 7.44047,8.68055 21.01154,-11.67853 5.68211,-9.97526"
       id="path4322"
       inkscape:connector-curvature="0" />
    <path
       style="fill:none;fill-rule:evenodd;stroke:#000000;stroke-width:1px;stroke-linecap:butt;stroke-linejoin:miter;stroke-opacity:1"
       d="m 454.94745,447.4071 c 0.16522,2.33358 2.63169,4.75169 4.04061,5.80838"
       id="path4324"
       inkscape:connector-curvature="0" />
    <path
       style="fill:none;fill-rule:evenodd;stroke:#000000;stroke-width:1px;stroke-linecap:butt;stroke-linejoin:miter;stroke-opacity:1"
       d="m 462.9024,444.88172 c 1.54834,16.78643 9.12763,-0.75762 6.9448,-0.75762 -1.60055,0 1.02724,7.37278 1.26269,7.70242"
       id="path4326"
       inkscape:connector-curvature="0" />
    <path
       style="fill:none;fill-rule:evenodd;stroke:#000000;stroke-width:1px;stroke-linecap:butt;stroke-linejoin:miter;stroke-opacity:1"
       d="m 475.65558,444.62918 c 0.57202,1.93178 -0.14694,5.76259 -0.25254,6.81853"
       id="path4328"
       inkscape:connector-curvature="0" />
    <path
       style="fill:none;fill-rule:evenodd;stroke:#000000;stroke-width:1px;stroke-linecap:butt;stroke-linejoin:miter;stroke-opacity:1"
       d="m 474.7717,439.45215 c 0.16175,0.44993 0.26216,0.52432 0.3788,0.75761"
       id="path4330"
       inkscape:connector-curvature="0" />
    <path
       style="fill:none;fill-rule:evenodd;stroke:#000000;stroke-width:1px;stroke-linecap:butt;stroke-linejoin:miter;stroke-opacity:1"
       d="m 481.7165,438.44199 c -0.99157,6.73866 -2.19092,13.83916 5.93464,10.2278"
       id="path4332"
       inkscape:connector-curvature="0" />
    <path
       style="fill:none;fill-rule:evenodd;stroke:#000000;stroke-width:1px;stroke-linecap:butt;stroke-linejoin:miter;stroke-opacity:1"
       d="m 480.45381,443.36649 c 1.16766,-0.92991 3.63882,-0.90971 5.05076,-1.26269"
       id="path4334"
       inkscape:connector-curvature="0" />
    <path
       style="fill:none;fill-rule:evenodd;stroke:#000000;stroke-width:1px;stroke-linecap:butt;stroke-linejoin:miter;stroke-opacity:1"
       d="m 492.57564,437.93692 c -2.17114,4.49793 -1.9702,13.22067 4.54568,8.33376"
       id="path4336"
       inkscape:connector-curvature="0" />
    <path
       style="fill:none;fill-rule:evenodd;stroke:#000000;stroke-width:1px;stroke-linecap:butt;stroke-linejoin:miter;stroke-opacity:1"
       d="m 491.56548,442.60887 c 1.49902,-0.44122 3.29146,-0.27965 4.67196,-0.12627"
       id="path4338"
       inkscape:connector-curvature="0" />
    <path
       style="fill:none;fill-rule:evenodd;stroke:#000000;stroke-width:1px;stroke-linecap:butt;stroke-linejoin:miter;stroke-opacity:1"
       d="m 500.65686,448.66979 c 0.83936,-0.51015 3.79485,-1.40929 4.29314,-2.90419 0.51164,-1.53491 -3.66028,0.0396 -4.16687,0.88388 -2.65801,4.43002 5.39268,2.82758 7.07106,1.38896"
       id="path4340"
       inkscape:connector-curvature="0" />
    <path
       style="fill:none;fill-rule:evenodd;stroke:#000000;stroke-width:1px;stroke-linecap:butt;stroke-linejoin:miter;stroke-opacity:1"
       d="m 513.28376,446.14441 c -0.89601,0.14134 -0.17816,5.80837 -0.3788,5.80837 -1.9528,0 2.26938,-5.65097 5.05076,-5.3033"
       id="path4344"
       inkscape:connector-curvature="0" />
    <g
       id="g4350">
      <path
         inkscape:connector-curvature="0"
         id="path4346"
         d="m 64.464286,443.07649 c -0.151879,-0.88107 0.871479,-9.46429 2.321428,-9.46429 1.031468,0 2.574338,12.31416 3.214286,10.71429 1.873717,-4.68429 -0.436524,-15.4961 2.321429,-4.46429 0.069,0.27598 0.260535,2.5 0.714285,2.5 0.422382,0 -1.002387,-8.03571 0.357143,-8.03571 3.483542,0 3.139349,6.36479 3.571429,9.82143 M 80,442.00506 c 9.064912,2.15316 2.805611,-8.67091 1.071429,0 -0.201423,1.00712 0.550638,3.40778 1.25,4.10714 2.703787,2.70379 6.545247,-2.28088 6.25,-4.64285 m -0.178572,2.32142 c 1.724846,0.98586 -0.511955,-7.29766 0.892857,-5.89285 1.604674,1.60467 3.978556,3.49282 5,5.53571 1.064556,2.12911 -3.590747,3.53279 -4.285714,2.14286 -0.272598,-0.5452 4.213597,-2.40899 4.821429,-3.92857 0.420312,-1.05078 -1.076405,-5.35217 -1.071429,-5.35715 0.140214,-0.14021 2.320466,0.8031 2.5,0.89286 8.7936,4.3968 0.178572,9.28502 0.178572,5.89286 m 8.214288,-5.17857 c -9.558949,3.07051 5.32866,9.55741 2.32143,0.53571 -0.51939,-1.55816 -2.40097,-1.42857 -3.57143,-1.42857 m 3.03571,0.35714 c 1.17143,4.77814 3.50328,7.37985 6.07143,3.39286 m 1.25,-4.0625 c -8.8709,11.79598 12.41751,-2.785 0.13393,-0.17857 m 3.97321,-0.0446 c 2.12736,1.807 2.62172,16.64771 -0.17857,15.71428 -3.64291,-1.2143 2.34282,-8.7362 3.39286,-9.77995 1.27739,-1.26975 4.40479,-2.48299 3.77352,-4.49679 -1.53963,-4.91157 -8.7083,6.31673 2.47648,2.31246 m -46.785716,18.57142 c -12.431279,11.50249 12.245637,8.17639 1.25,2.67858 m -1.428571,-11.78572 c 2.50456,4.4622 3.529759,13.34375 4.821429,16.25 m 4.107142,-3.57143 c 1.357418,1.98348 5,-0.9682 5,-2.85714 0,-7.89272 -11.74894,15.35639 2.5,5.17857 m 12.678576,-0.71428 c 7.28877,-4.73122 -1.39357,-14.57461 0.17857,-7.5 0.89353,4.02089 1.9177,8.24536 2.5,12.32142 0.48758,3.41305 -1.96429,3.20106 -1.96429,0.71429 0,-3.30537 3.14668,-9.37244 3.75,-11.78571 m 0.89286,-0.17858 c 0.10835,2.47361 1.77968,9.30985 3.03571,4.28572 m -6.25,-8.57143 0.71429,0.71429"
         style="fill:none;fill-rule:evenodd;stroke:#000000;stroke-width:1px;stroke-linecap:butt;stroke-linejoin:miter;stroke-opacity:1"
         sodipodi:nodetypes="csscssccssccssssccccsccccccsssccccccsccsssccccc" />
      <path
         inkscape:connector-curvature="0"
         id="path4348"
         d="m 119.46429,455.93363 c -0.53566,-2.29303 1.96428,9.14048 1.96428,6.78572 0,-1.81128 1.2953,-8.90593 4.10714,-7.5 1.61568,0.80783 0.62156,4.15006 1.96429,4.82142 0.91498,0.45749 3.19607,-1.94606 3.75,-2.5 m 4.28571,-3.92857 c 13.91641,-10.31716 44.18572,-15.63482 56.25,-17.14285 m -12.14285,-2.85715 c -4.02552,-0.60819 12.70357,2.06627 13.39285,2.14286 -2.14544,2.51844 -7.2668,8.64496 -10.17857,11.07143"
         style="fill:none;fill-rule:evenodd;stroke:#000000;stroke-width:1px;stroke-linecap:butt;stroke-linejoin:miter;stroke-opacity:1" />
      <path
         style="fill:none;fill-rule:evenodd;stroke:#000000;stroke-width:1px;stroke-linecap:butt;stroke-linejoin:miter;stroke-opacity:1"
         d="m 116.16754,152.06375 c -2.47323,2.29807 -2.76091,5.70631 -3.28299,8.83883 -0.32928,1.97568 0.81247,3.70295 2.27284,4.79823 10.582,7.9365 23.0406,-25.59579 5.3033,1.01015 -1.62858,2.44287 -3.02771,4.96292 -4.79822,7.32361 -3.38126,4.50833 -25.302093,17.72594 -19.697978,12.12183 4.601988,-4.60199 12.743988,5.76217 18.435288,5.05076 15.94123,-1.99265 18.41413,-19.13869 7.57614,-9.84899 m 5.55584,4.54569 c 9.19807,2.77316 12.4465,-14.57503 5.3033,-5.05076 -0.76326,1.01768 -1.69391,3.25201 -1.26269,4.54568 1.68432,5.05296 5.74366,4.88662 7.57614,0 m 12.87945,-4.04061 c 1.68199,-1.24712 3.89339,-4.79822 6.31345,-4.79822 3.76043,0 -4.99692,15.52277 -2.52538,9.34391 0.47333,-1.18331 9.41426,-10.7888 10.10153,-10.10153 2.78126,2.78127 -8.82198,17.88209 2.77792,9.59645 m 10.10152,-8.83883 c -4.62348,2.03087 -12.53198,5.99822 -10.10152,10.85914 1.55891,3.11783 9.7173,-3.82114 10.6066,-5.3033 0.79853,-1.3309 1.51111,-2.88471 0.50507,-4.29315 -0.63794,-0.89313 -3.87548,-1.76777 -2.77792,-1.76777 0.94232,0 3.48228,0.40314 4.54569,0.75762 6.27349,2.09116 -0.50508,11.5594 -0.50508,10.85913 0,-1.00415 3.80729,-10.21818 6.06092,-9.09137 2.13092,1.06546 -3.92884,11.25245 -3.03046,10.35407 1.69295,-1.69295 2.0333,-6.08041 3.53554,-8.33376 5.3612,-8.0418 -6.10701,16.27409 9.34391,3.03045 5.76581,-3.18665 8.31034,-9.6617 9.09137,-15.9099 m 3.1e-4,0.35538 c 1.01758,-3.1594 -2.20136,-10.50646 -4.64286,-9.28572 -6.03103,3.01552 -3.21458,28.74986 2.85714,31.78572 5.60772,2.80386 0.97942,-14.02059 1.78572,-13.21429 2.90454,2.90454 13.00634,-3.77937 10.35714,-6.42857 -1.30952,-1.30952 3.47941,2.13192 3.92857,3.92857 0.46764,1.87053 -4.60966,14.27465 0.71429,12.5 3.45623,-1.15207 18.28976,-14.42655 12.14286,-17.5 -2.44055,-1.22027 -14.74983,18.88309 4.64285,15.35715 m 13.21429,-1.07143 c -0.22245,-1.90619 6.32599,-13.08701 8.21428,-12.14286 1.70066,0.85033 -1.92727,11.57013 -3.21428,12.85714 -1.9673,1.9673 5.15888,-12.32799 8.92857,-11.07143 3.2123,1.07077 -4.18002,12.39431 -1.78571,10 12.12437,-12.12437 12.23686,-11.80461 9.28571,0 m 13.92857,-13.21428 c 1.65631,1.7436 -0.71174,6.43112 0.71429,7.85714 3.33333,3.33334 10,-14.71404 10,-10 0,4.98069 -24.75953,42.08452 -28.21429,40.35714 -2.31637,-1.15818 9.0683,-14.06829 10.35714,-15.35714 6.62645,-6.62644 15.63314,-12.04141 21.42858,-19.28571 2.22857,-2.78572 1.0754,-9.64286 4.64285,-9.64286 1.92704,0 5.04618,15.81512 -1.07143,14.28571 -6.79006,-1.69751 22.79907,-25 13.57143,-25 -0.62339,0 -7.21668,23.78492 -2.5,25.35715 6.08301,2.02767 11.55808,-11.82888 9.28572,-11.07143 -4.36092,1.45364 -6.88441,18.26129 8.92857,-0.71429 0.40566,-0.48679 2.40194,-3.08474 1.42857,-3.57143 -3.28019,-1.64009 -0.78019,9.0742 2.5,10.71429 4.3974,2.1987 13.66523,-10.80207 11.78571,-11.42857 -4.0741,-1.35804 -10.36996,9.63644 -6.78571,11.42857 7.0314,3.5157 12.58507,-12.874 12.5,-13.21429 m -43.21429,-0.35714 c 5.18615,2.85286 11.93221,2.21308 17.5,0.35714 m -6.07142,-12.85714 c -1.9959,4.65813 -1.52138,9.35923 2.14285,12.5"
         id="path4354"
         inkscape:connector-curvature="0"
         sodipodi:nodetypes="cssssssccssccsssccsscsssssscccsssssssccssssccsssssssssssssssccccc" />
    </g>
    <text
       xml:space="preserve"
       style="font-style:normal;font-weight:normal;font-size:22.5px;line-height:125%;font-family:sans-serif;letter-spacing:0px;word-spacing:0px;writing-mode:lr-tb;fill:#000000;fill-opacity:1;stroke:none;stroke-width:1px;stroke-linecap:butt;stroke-linejoin:miter;stroke-opacity:1"
       x="103.46792"
       y="287.84924"
       id="text4358"
       sodipodi:linespacing="125%"><tspan
         sodipodi:role="line"
         id="tspan4360"
         x="103.46792"
         y="287.84924">nombre de tentatives: 5</tspan><tspan
         sodipodi:role="line"
         x="103.46792"
         y="315.97424"
         id="tspan4362" /></text>
  </g>
</svg>
